<svg width="116" height="116" viewBox="0 0 116 116" fill="none" xmlns="http://www.w3.org/2000/svg">
<path d="M62.7193 78.1332H53.7147C47.3442 78.1332 42.1233 72.7686 42.1233 66.1587C42.1233 64.1949 43.7518 62.5664 45.7156 62.5664C47.6795 62.5664 49.308 64.1949 49.308 66.1587C49.308 68.7931 51.2719 70.9485 53.7147 70.9485H62.7193C64.5874 70.9485 66.0723 69.2721 66.0723 67.2125C66.0723 64.626 65.3538 64.2428 63.7253 63.668L49.308 58.6387C46.2425 57.537 42.1233 55.3338 42.1233 48.2928C42.1233 42.3056 46.8652 37.3721 52.6609 37.3721H61.6656C68.036 37.3721 73.2569 42.7366 73.2569 49.3466C73.2569 51.3104 71.6284 52.9389 69.6646 52.9389C67.7008 52.9389 66.0723 51.3104 66.0723 49.3466C66.0723 46.7122 64.1084 44.5568 61.6656 44.5568H52.6609C50.7929 44.5568 49.308 46.2332 49.308 48.2928C49.308 50.8793 50.0264 51.2624 51.6549 51.8372L66.0723 56.8665C69.1377 57.9681 73.2569 60.1715 73.2569 67.2125C73.2569 73.2476 68.515 78.1332 62.7193 78.1332Z" fill="#292D32"/>
<path d="M57.6902 82.9242C55.7264 82.9242 54.0979 81.2956 54.0979 79.3318V36.2237C54.0979 34.2599 55.7264 32.6313 57.6902 32.6313C59.6541 32.6313 61.2826 34.2599 61.2826 36.2237V79.3318C61.2826 81.2956 59.6541 82.9242 57.6902 82.9242Z" fill="#292D32"/>
<path d="M57.6902 109.268C29.2868 109.268 6.19995 86.1813 6.19995 57.7779C6.19995 29.3744 29.2868 6.2876 57.6902 6.2876C59.654 6.2876 61.2826 7.91613 61.2826 9.87994C61.2826 11.8438 59.654 13.4723 57.6902 13.4723C33.2623 13.4723 13.3846 33.3499 13.3846 57.7779C13.3846 82.2058 33.2623 102.083 57.6902 102.083C82.1182 102.083 101.996 82.2058 101.996 57.7779C101.996 55.8141 103.624 54.1855 105.588 54.1855C107.552 54.1855 109.181 55.8141 109.181 57.7779C109.181 86.1813 86.0937 109.268 57.6902 109.268Z" fill="#292D32"/>
<path d="M105.588 32.6315C103.624 32.6315 101.996 31.0029 101.996 29.0391V13.4723H86.429C84.4652 13.4723 82.8367 11.8438 82.8367 9.87994C82.8367 7.91613 84.4652 6.2876 86.429 6.2876H105.588C107.552 6.2876 109.181 7.91613 109.181 9.87994V29.0391C109.181 31.0029 107.552 32.6315 105.588 32.6315Z" fill="#292D32"/>
<path d="M81.639 37.421C80.7289 37.421 79.8188 37.0857 79.1004 36.3672C77.7113 34.9782 77.7113 32.6791 79.1004 31.2901L103.049 7.3411C104.438 5.95206 106.737 5.95206 108.127 7.3411C109.516 8.73014 109.516 11.0292 108.127 12.4183L84.1775 36.3672C83.4591 37.0857 82.549 37.421 81.639 37.421Z" fill="#292D32"/>
</svg>
