<svg width="42" height="42" viewBox="0 0 42 42" fill="none" xmlns="http://www.w3.org/2000/svg">
<path d="M22.7324 3.76298C26.8974 2.95798 31.3949 4.16548 34.6324 7.38548C39.7949 12.548 39.7949 20.9655 34.6324 26.1105C31.0274 29.698 25.8649 30.8005 21.3324 29.383L13.0899 37.608C12.4949 38.2205 11.3224 38.588 10.4824 38.4655L6.66739 37.9405C5.40739 37.7655 4.23489 36.5755 4.04239 35.3155L3.51739 31.5005C3.39489 30.6605 3.79739 29.488 4.37489 28.893L6.33489 26.933L12.5824 20.6855C11.1824 16.1355 12.2674 10.973 15.8724 7.38548" stroke="white" stroke-width="2.625" stroke-miterlimit="10" stroke-linecap="round" stroke-linejoin="round"/>
<path d="M12.0574 30.6079L16.0824 34.6329" stroke="white" stroke-width="2.625" stroke-miterlimit="10" stroke-linecap="round" stroke-linejoin="round"/>
<path d="M25.375 19.25C26.8247 19.25 28 18.0747 28 16.625C28 15.1753 26.8247 14 25.375 14C23.9253 14 22.75 15.1753 22.75 16.625C22.75 18.0747 23.9253 19.25 25.375 19.25Z" stroke="white" stroke-width="2.625" stroke-linecap="round" stroke-linejoin="round"/>
</svg>
