<svg width="111" height="111" viewBox="0 0 111 111" fill="none" xmlns="http://www.w3.org/2000/svg">
<path d="M61.9986 41.3315H48.2211C40.6435 41.3315 34.4436 47.5314 34.4436 55.109V68.8865C34.4436 76.4642 40.6435 82.664 48.2211 82.664H61.9986C69.5762 82.664 75.7761 76.4642 75.7761 68.8865V55.109" stroke="#292D32" stroke-width="6.9375" stroke-linecap="round" stroke-linejoin="round"/>
<path d="M55.1104 41.3315V82.664" stroke="#292D32" stroke-width="6.9375" stroke-linecap="round" stroke-linejoin="round"/>
<path d="M34.4436 61.9995H75.7761" stroke="#292D32" stroke-width="6.9375" stroke-linecap="round" stroke-linejoin="round"/>
<path d="M101.035 48.2219C101.035 42.665 97.3146 35.5466 92.7681 32.3778L64.3864 12.4922C57.9569 7.99159 47.6238 8.22122 41.4239 13.0433L16.6703 32.3318C12.5371 35.5466 9.18457 42.3894 9.18457 47.5789V81.6094C9.18457 92.264 17.8644 100.99 28.519 100.99H81.7001C92.3547 100.99 101.035 92.264 101.035 81.6553V67.4185" stroke="#292D32" stroke-width="6.9375" stroke-linecap="round" stroke-linejoin="round"/>
</svg>
