<svg width="43" height="43" viewBox="0 0 43 43" fill="none" xmlns="http://www.w3.org/2000/svg">
<path d="M38.0729 33.0926L35.1166 33.7914C34.4537 33.9526 33.9341 34.4543 33.7908 35.1172L33.1637 37.7509C32.8233 39.1843 30.9958 39.6322 30.0462 38.5034L24.6891 32.3401C24.2591 31.8384 24.492 31.0501 25.137 30.8889C28.3083 30.1184 31.157 28.3447 33.2533 25.8184C33.5937 25.4064 34.2029 25.3526 34.5791 25.7289L38.5566 29.7064C39.9183 31.068 39.4345 32.7701 38.0729 33.0926Z" fill="#ECC424"/>
<path d="M4.83743 33.0926L7.79368 33.7914C8.45659 33.9526 8.97618 34.4543 9.11951 35.1172L9.74659 37.7509C10.087 39.1843 11.9145 39.6322 12.8641 38.5034L18.2212 32.3401C18.6512 31.8384 18.4183 31.0501 17.7733 30.8889C14.602 30.1184 11.7533 28.3447 9.65701 25.8184C9.31659 25.4064 8.70743 25.3526 8.33118 25.7289L4.35368 29.7064C2.99201 31.068 3.47576 32.7701 4.83743 33.0926Z" fill="#ECC424"/>
<path d="M21.4999 3.58301C14.5662 3.58301 8.95825 9.19093 8.95825 16.1247C8.95825 18.7226 9.72867 21.1055 11.0545 23.0943C12.9895 25.9609 16.0533 27.9855 19.6187 28.5051C20.2278 28.6126 20.8549 28.6663 21.4999 28.6663C22.1449 28.6663 22.772 28.6126 23.3812 28.5051C26.9466 27.9855 30.0103 25.9609 31.9453 23.0943C33.2712 21.1055 34.0416 18.7226 34.0416 16.1247C34.0416 9.19093 28.4337 3.58301 21.4999 3.58301ZM26.9824 15.7305L25.4953 17.2176C25.2445 17.4684 25.1012 17.9522 25.1908 18.3105L25.6208 20.1559C25.9612 21.6072 25.1908 22.1805 23.9008 21.4101L22.1091 20.353C21.7866 20.1559 21.2491 20.1559 20.9266 20.353L19.1349 21.4101C17.8449 22.1626 17.0745 21.6072 17.4149 20.1559L17.8449 18.3105C17.9166 17.9701 17.7912 17.4684 17.5403 17.2176L16.0174 15.7305C15.1395 14.8526 15.4262 13.9747 16.6445 13.7776L18.5616 13.4551C18.8841 13.4013 19.2603 13.1147 19.4037 12.828L20.4608 10.7138C21.0341 9.56717 21.9658 9.56717 22.5391 10.7138L23.5962 12.828C23.7395 13.1147 24.1158 13.4013 24.4562 13.4551L26.3733 13.7776C27.5737 13.9747 27.8603 14.8526 26.9824 15.7305Z" fill="#ECC424"/>
</svg>
