<svg width="102" height="103" viewBox="0 0 102 103" fill="none" xmlns="http://www.w3.org/2000/svg">
<path d="M48.5458 65.8203L44.5542 52.8135H44.4521C44.4673 53.1235 44.4899 53.5922 44.5202 54.2197C44.558 54.8396 44.592 55.5011 44.6222 56.2041C44.6525 56.9072 44.6676 57.5422 44.6676 58.1092V65.8203H41.5265V49.2415H46.3119L50.2355 61.9194H50.3035L54.4652 49.2415H59.2506V65.8203H55.9734V57.9731C55.9734 57.4515 55.981 56.8505 55.9961 56.1701C56.0188 55.4897 56.0452 54.8433 56.0755 54.231C56.1057 53.6111 56.1284 53.1462 56.1435 52.8362H56.0415L51.7663 65.8203H48.5458Z" fill="#292D32"/>
<path d="M71.0857 51.1113H62.3937V49.2828L65.515 46.1275C66.1443 45.4811 66.649 44.9425 67.0288 44.5115C67.4144 44.075 67.6922 43.6781 67.8623 43.3209C68.0381 42.9637 68.126 42.5809 68.126 42.1727C68.126 41.6794 67.9871 41.3109 67.7092 41.0671C67.4371 40.8176 67.0714 40.6929 66.6121 40.6929C66.1302 40.6929 65.6624 40.8034 65.2088 41.0245C64.7552 41.2457 64.2818 41.5603 63.7885 41.9686L62.3597 40.2761C62.7169 39.9699 63.0939 39.6808 63.4908 39.4086C63.8934 39.1365 64.3583 38.9182 64.8856 38.7537C65.4186 38.5836 66.0565 38.4986 66.7992 38.4986C67.6157 38.4986 68.3159 38.646 68.8999 38.9408C69.4896 39.2357 69.9432 39.6382 70.2607 40.1485C70.5782 40.6532 70.737 41.2258 70.737 41.8665C70.737 42.5526 70.6009 43.1791 70.3287 43.7461C70.0566 44.3131 69.6597 44.8744 69.1381 45.4301C68.6221 45.9857 67.9984 46.6009 67.267 47.2756L65.6681 48.781V48.9001H71.0857V51.1113Z" fill="#292D32"/>
<path d="M16.9534 22.0827V91.9439C16.9534 96.1026 20.3246 99.4739 24.4833 99.4739H72.5914C76.75 99.4739 80.1213 96.1026 80.1213 91.9439V81.904C80.1213 77.7453 83.4926 74.3741 87.6513 74.3741H91.4163C95.5749 74.3741 98.9462 71.0028 98.9462 66.8441V22.0827C98.9462 17.924 95.575 14.5527 91.4163 14.5527H24.4833C20.3246 14.5527 16.9534 17.924 16.9534 22.0827Z" stroke="#292D32" stroke-width="5.40965"/>
<path d="M3.98511 99.0393V17.9668" stroke="#292D32" stroke-width="5.40965"/>
<rect x="0.219971" y="14.5527" width="7.52996" height="4.26697" rx="2.13349" fill="#292D32"/>
<rect x="0.219971" y="95.6255" width="7.52996" height="4.26697" rx="2.13349" fill="#292D32"/>
<path d="M17.7733 4.09472L95.6665 4.09473" stroke="#292D32" stroke-width="5.40965"/>
<rect x="98.946" y="0.32959" width="7.52996" height="4.09964" rx="2.04982" transform="rotate(90 98.946 0.32959)" fill="#292D32"/>
<rect x="21.0527" y="0.32959" width="7.52996" height="4.09964" rx="2.04982" transform="rotate(90 21.0527 0.32959)" fill="#292D32"/>
</svg>
