<svg width="158" height="158" viewBox="0 0 158 158" fill="none" xmlns="http://www.w3.org/2000/svg">
<path d="M13.1296 144.426H144.426" stroke="#292D32" stroke-width="7" stroke-miterlimit="10" stroke-linecap="round" stroke-linejoin="round"/>
<path d="M98.538 144.36L19.76 144.491L19.6943 46.4125C19.6943 42.014 21.9265 37.9436 25.5371 35.5146L51.7965 17.9866C56.1949 15.0325 61.9718 15.0325 66.3702 17.9866L92.6295 35.5146C96.3058 37.9436 98.4723 42.014 98.4723 46.4125L98.538 144.36Z" stroke="#292D32" stroke-width="7" stroke-miterlimit="10" stroke-linecap="round" stroke-linejoin="round"/>
<path d="M131.165 144.492V118.167" stroke="#292D32" stroke-width="7" stroke-miterlimit="10" stroke-linecap="round" stroke-linejoin="round"/>
<path d="M131.297 78.7778C124.075 78.7778 118.167 84.6862 118.167 91.9075V105.037C118.167 112.258 124.075 118.167 131.297 118.167C138.518 118.167 144.426 112.258 144.426 105.037V91.9075C144.426 84.6862 138.518 78.7778 131.297 78.7778Z" stroke="#292D32" stroke-width="7" stroke-miterlimit="10" stroke-linecap="round" stroke-linejoin="round"/>
<path d="M19.6943 91.9077H98.4723" stroke="#292D32" stroke-width="7" stroke-miterlimit="10" stroke-linecap="round" stroke-linejoin="round"/>
<path d="M59.0835 144.426V119.808" stroke="#292D32" stroke-width="7" stroke-miterlimit="10" stroke-linecap="round" stroke-linejoin="round"/>
<path d="M59.0833 68.9308C64.5218 68.9308 68.9306 64.5221 68.9306 59.0836C68.9306 53.6451 64.5218 49.2363 59.0833 49.2363C53.6448 49.2363 49.2361 53.6451 49.2361 59.0836C49.2361 64.5221 53.6448 68.9308 59.0833 68.9308Z" stroke="#292D32" stroke-width="7" stroke-miterlimit="10" stroke-linecap="round" stroke-linejoin="round"/>
</svg>
